<!--?xml version="1.0" standalone="no"?--><!doctype html>
<svg
  version="1.0"
  xmlns="http://www.w3.org/2000/svg"
  width="32.000000pt"
  height="32.000000pt"
  viewBox="0 0 32.000000 32.000000"
  preserveAspectRatio="xMidYMid meet"
>
  <g
    transform="translate(0.000000,32.000000) scale(0.100000,-0.100000)"
    fill="#000000"
    stroke="none"
  >
    <path
      d="M98 264 c-35 -18 -58 -62 -58 -110 0 -28 8 -44 34 -70 30 -30 40 -34
84 -34 45 0 53 4 81 35 53 61 39 145 -29 180 -36 19 -77 19 -112 -1z m128 -27
c37 -33 45 -91 17 -114 -10 -8 -12 -12 -6 -8 9 4 11 1 7 -9 -3 -9 -13 -16 -20
-16 -8 0 -17 -7 -20 -15 -7 -17 -84 -22 -84 -5 0 6 6 10 14 10 8 0 18 4 21 10
7 11 -23 2 -41 -12 -8 -5 -21 2 -37 22 -20 23 -25 39 -23 70 3 39 31 84 46 75
4 -3 10 2 13 9 9 24 79 13 113 -17z"
    ></path>
    <path
      d="M87 193 c-14 -13 -7 -25 8 -13 20 17 45 5 45 -20 0 -29 -27 -36 -53
-14 l-22 19 19 -22 c20 -25 77 -28 82 -5 1 7 0 8 -3 2 -9 -18 -21 -11 -16 10
9 34 -37 67 -60 43z"
    ></path>
    <path
      d="M201 178 c-1 -22 18 -33 32 -19 8 8 8 14 -2 24 -10 10 -11 9 -6 -5 4
-10 3 -18 -3 -18 -6 0 -13 8 -15 18 -4 15 -5 15 -6 0z"
    ></path>
  </g>
</svg>
